<?xml version="1.0" encoding="utf-8"?>
<!-- Generator: Adobe Illustrator 16.0.0, SVG Export Plug-In . SVG Version: 6.00 Build 0)  -->
<!DOCTYPE svg PUBLIC "-//W3C//DTD SVG 1.0//EN" "http://www.w3.org/TR/2001/REC-SVG-20010904/DTD/svg10.dtd">
<svg version="1.0" id="Layer_1" xmlns="http://www.w3.org/2000/svg" xmlns:xlink="http://www.w3.org/1999/xlink" x="0px" y="0px"
	 width="800px" height="800px" viewBox="0 0 800 800" enable-background="new 0 0 800 800" xml:space="preserve">
<g id="Layer_2_1_">
	<g id="Surfaces">
		<g id="UI_UX_Surface">
			<g id="Outline_no_shadow">
				<path fill="#470137" d="M149.33,21.569h501.339c76.011,0,137.465,61.455,137.465,137.464v481.933
					c0,76.011-61.454,137.465-137.465,137.465H149.33c-76.009,0-137.464-61.454-137.464-137.465V159.033
					C11.866,83.024,73.321,21.569,149.33,21.569z"/>
			</g>
		</g>
	</g>
	<g id="Outlined_Mnemonics_Logos">
		<g id="Dw">
			<path fill="#FF61F6" d="M85.612,551.372V220.164c-0.324-1.94,1.294-3.881,3.234-4.204c0,0,0,0,0.323,0
				c4.852-0.323,12.291-0.647,21.671-0.647c9.703-0.323,20.701-0.323,33.638-0.646c12.938-0.323,26.522-0.323,41.078-0.323
				c39.46,0,72.452,7.115,98.327,21.347c24.905,13.262,45.282,33.639,58.544,58.544c12.938,24.905,19.407,53.368,19.407,85.713
				c0.323,22.641-2.911,44.96-10.027,66.307c-6.146,18.112-15.525,34.933-27.816,49.811c-11.321,13.585-24.906,25.229-39.784,34.608
				c-14.555,9.057-30.727,15.849-47.546,20.378c-16.172,4.204-32.991,6.468-49.81,6.468H150.3c-12.938,0-25.229,0-36.226-0.323
				c-11.321-0.323-19.73-0.323-25.229-0.647C86.582,556.547,85.612,554.606,85.612,551.372z M153.858,278.385v215.738
				c3.558,0,6.792,0,10.027,0.323c2.911,0.323,6.146,0.323,9.057,0.646c3.234,0.323,6.792,0.323,10.673,0.323
				c14.879,0.324,29.757-2.264,43.989-7.438c12.938-4.528,24.258-11.968,33.962-21.994c9.703-10.351,17.142-22.642,21.67-35.902
				c5.175-15.525,7.763-32.021,7.763-48.518c0.324-15.525-2.264-31.051-7.439-45.605c-9.057-25.229-29.434-44.636-55.309-52.398
				c-13.909-4.205-28.14-6.469-42.695-6.146c-6.469,0-11.968,0-16.496,0.324C164.532,277.738,159.357,278.062,153.858,278.385
				L153.858,278.385z"/>
			<path fill="#FF61F6" d="M651.64,556.547h-60.483c-1.294,0.324-2.911-0.323-3.882-1.293c-0.971-1.294-1.617-2.588-1.94-3.882
				c-6.146-25.876-11.321-49.164-15.525-68.894c-4.204-20.054-7.763-36.872-10.351-50.78c-2.587-13.908-4.852-25.552-6.792-35.256
				c-1.617-9.703-3.234-17.79-4.205-24.582h-0.323c-3.234,14.231-6.146,28.14-9.057,41.4c-2.587,13.262-5.822,26.847-9.057,40.431
				c-3.233,13.585-6.792,28.464-10.996,44.636c-3.882,16.173-8.41,33.962-13.262,53.045c-0.647,3.559-2.264,5.175-5.175,5.175
				h-60.485c-1.616,0.324-3.233-0.323-4.527-0.97c-0.97-0.971-1.617-2.264-2.265-3.558l-63.072-250.023
				c-0.97-2.911,0.324-4.205,3.881-4.205h61.131c2.911,0,4.529,0.971,4.852,3.235c6.47,28.463,11.969,53.044,16.173,73.745
				c4.204,20.7,7.763,38.167,10.026,52.722c2.265,14.555,4.528,26.522,6.146,35.579c1.616,9.056,2.911,16.818,3.881,22.641h0.971
				c0.646-5.175,1.293-10.026,2.264-15.201c1.294-6.146,2.911-14.232,4.852-24.259c1.94-10.027,4.205-21.671,7.115-35.255
				c2.911-13.585,6.146-29.11,10.027-47.224c3.558-17.789,8.733-38.167,14.879-61.132c0-1.293,0.646-2.91,1.293-4.204
				c0.324-0.647,1.618-0.971,3.559-0.971h63.395c1.94,0,2.911,1.294,3.235,3.559c5.498,23.611,10.026,44.312,13.907,62.101
				c3.559,17.79,6.793,33.639,9.704,47.547c2.588,13.585,4.852,25.552,6.145,35.255c1.295,10.027,2.911,18.113,4.206,24.906
				c0.97,5.499,1.94,10.996,2.264,16.495h0.97c1.618-6.469,2.911-14.231,4.205-22.965c1.294-8.732,2.911-18.437,5.176-29.433
				c1.94-10.997,4.204-22.965,6.792-36.227c2.264-13.261,5.498-27.816,9.057-44.312c3.558-16.172,7.439-33.962,11.967-53.046
				c0.647-2.91,1.94-4.204,4.205-4.204h56.603c2.911,0,3.882,1.617,3.234,4.528L656.491,551.05c-0.323,1.293-0.97,2.586-1.94,3.557
				C654.551,556.224,653.257,556.871,651.64,556.547z"/>
		</g>
	</g>
</g>
</svg>
